<svg xmlns="http://www.w3.org/2000/svg" xmlns:xlink="http://www.w3.org/1999/xlink" width="20.157833099365234" height="20.172454833984375" viewBox="0 0 20.157833099365234 20.172454833984375" fill="none"><g opacity="1"  transform="translate(0.9175834655761719 0.916412353515625)  rotate(0)"><path  id="路径 1" style="fill:#6E6C6E; opacity:1;" d="M10.354 5.22041L8.89405 3.7704C8.53735 3.41371 7.96265 3.41371 7.60818 3.76818L6.14595 5.22041L5.5 4.57L6.14818 3.92182L14.3982 12.1718L13.75 12.82L13.104 12.1696L14.564 10.7196C14.9135 10.3652 14.9135 9.78484 14.5573 9.42363L13.1018 7.96818C12.7435 7.60988 12.7439 7.02886 13.1026 6.67101L17.1126 2.67101C17.5076 2.27078 17.5076 1.61922 17.1075 1.21387C16.7136 0.819942 16.0581 0.813007 15.6625 1.21387L11.6474 5.21899C11.2901 5.57534 10.7121 5.57597 10.354 5.22041ZM11.646 3.9196L11 4.57L10.3526 3.92101L14.3575 -0.0738746C15.4677 -1.19881 17.2906 -1.19574 18.4125 -0.0738747C19.517 1.04542 19.517 2.84458 18.4074 3.96899L14.3974 7.96899L13.75 7.32L14.3982 6.67182L15.8627 8.13637C16.9228 9.2114 16.9228 10.9386 15.856 12.0204L14.396 13.4704C14.0376 13.8263 13.4589 13.8253 13.1018 13.4682L4.85182 5.21818C4.49297 4.85933 4.49397 4.27721 4.85405 3.9196L6.31182 2.47182C7.38225 1.40139 9.11775 1.40139 10.186 2.4696L11.646 3.9196Z"></path><path  id="路径 2" style="fill:#6E6C6E; opacity:1;" d="M11.236 15.0908L2.06934 12.7991Q1.98175 12.7772 1.90012 12.7387Q1.81849 12.7001 1.74595 12.6464Q1.67341 12.5926 1.61274 12.5257Q1.55208 12.4589 1.50563 12.3815Q1.45918 12.304 1.42873 12.219Q1.39827 12.134 1.38498 12.0447Q1.37169 11.9554 1.37608 11.8653Q1.38047 11.7751 1.40237 11.6875Q1.42427 11.5999 1.46283 11.5183Q1.50139 11.4367 1.55514 11.3641Q1.60889 11.2916 1.67576 11.2309Q1.74263 11.1702 1.82005 11.1238Q1.89746 11.0773 1.98246 11.0469Q2.06745 11.0164 2.15675 11.0031Q2.24605 10.9899 2.33623 10.9942Q2.4264 10.9986 2.51399 11.0205L11.6807 13.3122Q11.7682 13.3341 11.8499 13.3727Q11.9315 13.4112 12.0041 13.465Q12.0766 13.5187 12.1373 13.5856Q12.1979 13.6525 12.2444 13.7299Q12.2908 13.8073 12.3213 13.8923Q12.3517 13.9773 12.365 14.0666Q12.3783 14.1559 12.3739 14.2461Q12.3695 14.3362 12.3476 14.4238Q12.3257 14.5114 12.2872 14.593Q12.2486 14.6747 12.1949 14.7472Q12.1411 14.8198 12.0742 14.8804Q12.0074 14.9411 11.93 14.9875Q11.8525 15.034 11.7675 15.0644Q11.6826 15.0949 11.5933 15.1082Q11.504 15.1215 11.4138 15.1171Q11.3236 15.1127 11.236 15.0908ZM7.17938 6.00164M7.17938 6.00164Q5.78393 8.09481 3.96203 9.00576Q3.16685 9.40335 2.13236 9.66828Q1.40034 9.85575 0.150699 10.064L0 9.15983L0.715796 8.58719L8.04913 17.7539L7.33333 18.3265L6.92339 17.5066L7.33333 18.3265L6.92339 17.5066Q7.51573 17.2104 8.37931 16.4908Q9.27587 15.7437 10.0926 14.8453Q10.9556 13.896 11.4473 13.0827Q11.9167 12.3065 11.9167 11.9098L12.8333 11.9098L12.1852 12.558L5.76849 6.14135L6.41667 5.49316L7.17938 6.00164ZM5.65395 4.98469C5.97482 4.50338 6.65582 4.43595 7.06485 4.84498L13.4815 11.2617C13.6534 11.4336 13.75 11.6667 13.75 11.9098Q13.75 13.5476 11.4491 16.0785Q10.547 17.0708 9.55298 17.8992Q8.52594 18.7551 7.74328 19.1464C7.35667 19.3397 6.88756 19.2367 7.74328 19.1464C7.35667 19.3397 6.88756 19.2367 6.61754 18.8991L-0.715796 9.73247C-1.15306 9.18589 -0.841131 8.37071 -0.150699 8.25564Q1.02153 8.06026 1.67753 7.89227Q2.52221 7.67595 3.14214 7.36598Q4.52857 6.67276 5.65395 4.98469Z"></path></g></svg>