<svg t="1708504811807" class="icon" viewBox="0 0 1024 1024" version="1.1" xmlns="http://www.w3.org/2000/svg" p-id="5340" width="48" height="48"><path d="M716.8 883.2c-6.4 0-19.2 0-25.6-6.4L512 755.2l-179.2 121.6c-19.2 12.8-38.4 12.8-57.6 0-19.2-12.8-25.6-32-19.2-51.2L320 614.4 147.2 480C134.4 467.2 128 448 134.4 428.8c6.4-19.2 25.6-32 44.8-32L390.4 384l76.8-204.8c12.8-38.4 76.8-38.4 89.6 0l0 0L633.6 384l217.6 6.4c19.2 0 38.4 12.8 44.8 32 6.4 19.2 0 38.4-19.2 51.2L704 614.4l57.6 211.2c6.4 19.2 0 38.4-19.2 51.2C736 876.8 729.6 883.2 716.8 883.2zM512 684.8c6.4 0 12.8 0 19.2 6.4l166.4 115.2-57.6-192C640 595.2 640 582.4 652.8 576l160-128L608 448C595.2 448 582.4 435.2 582.4 422.4L512 236.8l-70.4 192C441.6 435.2 428.8 448 416 448L211.2 454.4l160 128C384 582.4 384 595.2 384 608l-57.6 192 166.4-115.2C499.2 684.8 505.6 684.8 512 684.8z" fill="#3d3d3d" p-id="5341"></path></svg>