<svg t="1708504830947" class="icon" viewBox="0 0 1024 1024" version="1.1" xmlns="http://www.w3.org/2000/svg" p-id="5638" width="48" height="48"><path d="M889.6 428.8c-6.4-19.2-25.6-32-44.8-32L633.6 384 556.8 179.2l0 0c-12.8-38.4-76.8-38.4-89.6 0L390.4 384 179.2 390.4c-19.2 0-38.4 12.8-44.8 32C128 448 134.4 467.2 147.2 480L320 614.4l-57.6 211.2c-6.4 19.2 0 38.4 19.2 51.2 19.2 12.8 38.4 12.8 57.6 0L512 755.2l179.2 121.6c6.4 6.4 19.2 6.4 25.6 6.4 12.8 0 19.2 0 25.6-6.4 19.2-12.8 25.6-32 19.2-51.2L704 614.4l172.8-134.4C889.6 467.2 896 448 889.6 428.8z" fill="#f4ea2a" p-id="5639"></path></svg>