<svg t="1708505131340" class="icon" viewBox="0 0 1024 1024" version="1.1" xmlns="http://www.w3.org/2000/svg" p-id="5984" width="64" height="64"><path d="M640 512 448 704l-102.4 19.2c0-12.8-6.4-25.6-19.2-38.4s-25.6-12.8-38.4-19.2l19.2-102.4 198.4-198.4c12.8-12.8 12.8-32 0-44.8s-32-12.8-44.8 0L256 531.2C256 537.6 249.6 544 249.6 550.4l-44.8 224c0 12.8 0 19.2 6.4 32 6.4 6.4 12.8 6.4 25.6 6.4 0 0 6.4 0 6.4 0L467.2 768c6.4 0 12.8-6.4 19.2-6.4l204.8-204.8c12.8-12.8 12.8-32 0-44.8S652.8 499.2 640 512z" fill="#3d3d3d" p-id="5985"></path><path d="M576 262.4c-12.8-12.8-32-12.8-44.8 0s-12.8 32 0 44.8l179.2 179.2c6.4 6.4 12.8 6.4 25.6 6.4s19.2 0 25.6-6.4c12.8-12.8 12.8-32 0-44.8L576 262.4z" fill="#3d3d3d" p-id="5986"></path><path d="M857.6 294.4l-134.4-134.4c-25.6-25.6-64-25.6-89.6 0L588.8 198.4C576 217.6 576 236.8 588.8 256l172.8 172.8c12.8 12.8 38.4 12.8 51.2 0L857.6 384C883.2 358.4 883.2 320 857.6 294.4z" fill="#3d3d3d" p-id="5987"></path><path d="M371.2 646.4c6.4 6.4 12.8 6.4 25.6 6.4s19.2 0 25.6-6.4l179.2-179.2c12.8-12.8 12.8-32 0-44.8s-32-12.8-44.8 0L371.2 601.6C358.4 614.4 358.4 633.6 371.2 646.4z" fill="#3d3d3d" p-id="5988"></path></svg>