<svg xmlns="http://www.w3.org/2000/svg" xmlns:xlink="http://www.w3.org/1999/xlink" width="17.409330368041992" height="16.500457763671875" viewBox="0 0 17.409330368041992 16.500457763671875" fill="none"><path  id="路径 1" style="fill:#6E6C6E; opacity:1;" d="M13.1032 10.0903L7.32816 4.31532Q7.26432 4.25148 7.21416 4.17641Q7.164 4.10134 7.12945 4.01793Q7.0949 3.93452 7.07729 3.84597Q7.05967 3.75742 7.05967 3.66714Q7.05967 3.57685 7.07729 3.48831Q7.0949 3.39976 7.12945 3.31635Q7.164 3.23293 7.21416 3.15787Q7.26432 3.0828 7.32816 3.01896Q7.392 2.95512 7.46707 2.90496Q7.54213 2.8548 7.62555 2.82025Q7.70896 2.7857 7.79751 2.76809Q7.88605 2.75047 7.97634 2.75047Q8.06662 2.75047 8.15517 2.76809Q8.24372 2.7857 8.32713 2.82025Q8.41054 2.8548 8.48561 2.90496Q8.56068 2.95512 8.62452 3.01896L14.3995 8.79396Q14.4634 8.8578 14.5135 8.93287Q14.5637 9.00793 14.5982 9.09134Q14.6328 9.17476 14.6504 9.26331Q14.668 9.35185 14.668 9.44214Q14.668 9.53242 14.6504 9.62097Q14.6328 9.70952 14.5982 9.79293Q14.5637 9.87634 14.5135 9.95141Q14.4634 10.0265 14.3995 10.0903Q14.3357 10.1542 14.2606 10.2043Q14.1855 10.2545 14.1021 10.289Q14.0187 10.3236 13.9302 10.3412Q13.8416 10.3588 13.7513 10.3588Q13.6611 10.3588 13.5725 10.3412Q13.484 10.3236 13.4005 10.289Q13.3171 10.2545 13.2421 10.2043Q13.167 10.1542 13.1032 10.0903ZM14.668 16.5005L5.04301 16.5005C4.79653 16.5005 4.56044 16.4012 4.38801 16.2251L0.528841 12.2834C-0.177094 11.5733 -0.177094 10.4185 0.533734 9.70339L9.70233 0.534791C10.4193 -0.177961 11.5742 -0.177961 12.2893 0.532866L16.8745 5.11812C17.5873 5.83512 17.5873 6.98999 16.8764 7.70505L8.44468 16.2285L7.79301 15.5838L7.79301 14.6671L14.668 14.6671L14.668 15.5838L14.668 16.5005ZM14.668 14.6671C15.8902 14.6671 15.8902 16.5005 14.668 16.5005L7.79301 16.5005C6.97873 16.5005 6.56867 15.518 7.14133 14.9391L15.5762 6.41256C15.5762 6.41256 15.5762 6.41256 15.5782 6.41449L10.9968 1.83308C10.9968 1.83308 10.9968 1.83308 10.9987 1.83115L1.83395 10.9959C1.83395 10.9959 1.83395 10.9959 1.83884 11.0008L5.69801 14.9425L5.04301 15.5838L5.04301 14.6671L14.668 14.6671Z"></path></svg>