<svg xmlns="http://www.w3.org/2000/svg" xmlns:xlink="http://www.w3.org/1999/xlink" width="18.791664123535156" height="16.5" viewBox="0 0 18.791664123535156 16.5" fill="none"><path id="路径 1" fill-rule="evenodd" style="fill:#6E6C6E" opacity="1" d="M11.0917 10.0833L8.70833 7.7L4.125 12.2833L6.50833 14.6667L11.0917 10.0833ZM10.0146 6.39375L12.3979 8.77708L16.9583 4.21667L14.575 1.83333L10.0146 6.39375ZM8.08958 5.75208L13.0396 10.7021L7.79167 15.95C7.425 16.3167 6.99722 16.5 6.50833 16.5C6.01944 16.5 5.59167 16.3167 5.225 15.95L5.17917 15.9042L4.58333 16.5L0 16.5L2.8875 13.6125L2.84167 13.5667C2.475 13.2 2.29167 12.7722 2.29167 12.2833C2.29167 11.7944 2.475 11.3667 2.84167 11L8.08958 5.75208ZM8.08958 5.75208L13.2917 0.55C13.6583 0.183333 14.0861 0 14.575 0C15.0639 0 15.4917 0.183333 15.8583 0.55L18.2417 2.93333C18.6083 3.3 18.7917 3.72778 18.7917 4.21667C18.7917 4.70556 18.6083 5.13333 18.2417 5.5L13.0396 10.7021L8.08958 5.75208Z"></path></svg>