<svg xmlns="http://www.w3.org/2000/svg" xmlns:xlink="http://www.w3.org/1999/xlink" width="18.333335876464844" height="18.33331298828125" viewBox="0 0 18.333335876464844 18.33331298828125" fill="none"><path id="路径 1" fill-rule="evenodd" style="fill:#6E6C6E" opacity="1" d="M9.23542 12.3521C8.79236 12.3674 8.36856 12.2949 7.964 12.1348C7.55944 11.9747 7.20408 11.7416 6.89792 11.4354C6.59236 11.1299 6.35922 10.7861 6.1985 10.4042C6.03778 10.0222 5.95772 9.61736 5.95833 9.18958C5.95833 9.03681 5.96597 8.88769 5.98125 8.74225C5.99653 8.59681 6.02708 8.45564 6.07292 8.31875C6.13403 8.13542 6.13006 7.95208 6.061 7.76875C5.99194 7.58542 5.87369 7.45556 5.70625 7.37917C5.52292 7.30278 5.34325 7.30278 5.16725 7.37917C4.99125 7.45556 4.873 7.58542 4.8125 7.76875C4.73611 7.99792 4.67867 8.22708 4.64017 8.45625C4.60167 8.68542 4.58272 8.92222 4.58333 9.16667C4.58333 9.77778 4.70189 10.3623 4.939 10.9202C5.17611 11.4782 5.50825 11.9707 5.93542 12.3979C6.34792 12.8257 6.83314 13.1542 7.39108 13.3833C7.94903 13.6125 8.52561 13.7347 9.12083 13.75L8.73125 14.1396C8.59375 14.2771 8.525 14.4375 8.525 14.6208C8.525 14.8042 8.59375 14.9646 8.73125 15.1021C8.86875 15.2396 9.02917 15.3083 9.2125 15.3083C9.39583 15.3083 9.55625 15.2396 9.69375 15.1021L11.1604 13.6354C11.3438 13.4521 11.4354 13.2382 11.4354 12.9937C11.4354 12.7493 11.3438 12.5354 11.1604 12.3521L9.69375 10.8854C9.55625 10.7479 9.39583 10.6792 9.2125 10.6792C9.02917 10.6792 8.86875 10.7479 8.73125 10.8854C8.59375 11.0229 8.525 11.1833 8.525 11.3667C8.525 11.55 8.59375 11.7104 8.73125 11.8479L9.23542 12.3521ZM9.075 5.95833C9.51806 5.95833 9.94583 6.03869 10.3583 6.19942C10.7708 6.36014 11.1299 6.59297 11.4354 6.89792C11.741 7.20347 11.9741 7.54722 12.1348 7.92917C12.2956 8.31111 12.3756 8.71597 12.375 9.14375C12.375 9.29653 12.3674 9.44533 12.3521 9.59017C12.3368 9.735 12.3062 9.87647 12.2604 10.0146C12.1993 10.1979 12.2033 10.3849 12.2723 10.5756C12.3414 10.7662 12.4596 10.9001 12.6271 10.9771C12.8104 11.0535 12.9901 11.0535 13.1661 10.9771C13.3421 10.9007 13.4603 10.7708 13.5208 10.5875C13.5972 10.3583 13.6547 10.1252 13.6932 9.88808C13.7317 9.65097 13.7506 9.4105 13.75 9.16667C13.75 8.55556 13.6391 7.97103 13.4172 7.41308C13.1954 6.85514 12.8633 6.35494 12.4208 5.9125C11.9931 5.48472 11.5002 5.16022 10.9423 4.939C10.3843 4.71778 9.80772 4.60686 9.2125 4.60625L9.625 4.19375C9.74722 4.05625 9.80833 3.89583 9.80833 3.7125C9.80833 3.52917 9.73958 3.36875 9.60208 3.23125C9.46458 3.09375 9.30417 3.025 9.12083 3.025C8.9375 3.025 8.77708 3.09375 8.63958 3.23125L7.17292 4.69792C6.98958 4.88125 6.89792 5.09514 6.89792 5.33958C6.89792 5.58403 6.98958 5.79792 7.17292 5.98125L8.63958 7.44792C8.77708 7.58542 8.9375 7.65417 9.12083 7.65417C9.30417 7.65417 9.46458 7.58542 9.60208 7.44792C9.73958 7.31042 9.80833 7.15 9.80833 6.96667C9.80833 6.78333 9.73958 6.62292 9.60208 6.48542L9.075 5.95833ZM9.16667 18.3333C7.89861 18.3333 6.70694 18.0926 5.59167 17.611C4.47639 17.1294 3.50625 16.4765 2.68125 15.6521C1.85625 14.8271 1.20328 13.8569 0.722333 12.7417C0.241389 11.6264 0.000611111 10.4347 0 9.16667C0 7.89861 0.240778 6.70694 0.722333 5.59167C1.20389 4.47639 1.85686 3.50625 2.68125 2.68125C3.50625 1.85625 4.47639 1.20328 5.59167 0.722333C6.70694 0.241389 7.89861 0.000611111 9.16667 0C10.4347 0 11.6264 0.240778 12.7417 0.722333C13.8569 1.20389 14.8271 1.85686 15.6521 2.68125C16.4771 3.50625 17.1304 4.47639 17.6119 5.59167C18.0935 6.70694 18.3339 7.89861 18.3333 9.16667C18.3333 10.4347 18.0926 11.6264 17.611 12.7417C17.1294 13.8569 16.4765 14.8271 15.6521 15.6521C14.8271 16.4771 13.8569 17.1304 12.7417 17.6119C11.6264 18.0935 10.4347 18.3339 9.16667 18.3333ZM9.16667 16.5C11.2139 16.5 12.9479 15.7896 14.3687 14.3687C15.7896 12.9479 16.5 11.2139 16.5 9.16667C16.5 7.11944 15.7896 5.38542 14.3687 3.96458C12.9479 2.54375 11.2139 1.83333 9.16667 1.83333C7.11944 1.83333 5.38542 2.54375 3.96458 3.96458C2.54375 5.38542 1.83333 7.11944 1.83333 9.16667C1.83333 11.2139 2.54375 12.9479 3.96458 14.3687C5.38542 15.7896 7.11944 16.5 9.16667 16.5Z"></path></svg>