<svg xmlns="http://www.w3.org/2000/svg" xmlns:xlink="http://www.w3.org/1999/xlink" width="20.166627883911133" height="15.583343505859375" viewBox="0 0 20.166627883911133 15.583343505859375" fill="none"><g opacity="1"  transform="translate(0.9166660308837891 0.9166717529296875)  rotate(0)"><g opacity="1"  transform="translate(0 0)  rotate(0)"><g opacity="1"  transform="translate(0 0)  rotate(0)"><path  id="路径 6" style="fill:#FFFFFF; opacity:1;" d="M6.41663 -0.916667L17.4166 -0.916667C18.4291 -0.916667 19.25 -0.0958552 19.25 0.916667L19.25 12.8333C19.25 13.8459 18.4291 14.6667 17.4166 14.6667L6.41663 14.6667L6.41663 12.8333L17.4166 12.8333C17.4166 12.8333 17.4166 12.8333 17.4166 12.8333L17.4166 0.916667C17.4166 0.916667 17.4166 0.916667 17.4166 0.916667L6.41663 0.916667L6.41663 -0.916667Z"></path><path id="路径 7" fill-rule="evenodd" style="fill:#555555" opacity="1" d="M0 12.83C0 13.34 0.41 13.75 0.92 13.75L6.42 13.75L6.42 0L0.92 0C0.41 0 0 0.41 0 0.92L0 12.83Z"></path><path  id="路径 7" style="fill:#FFFFFF; opacity:1;" d="M0.916667 12.83C0.916667 12.8318 0.918159 12.8333 0.92 12.8333L6.42 12.8333L6.42 13.75L5.50333 13.75L5.50333 0L6.42 0L6.42 0.916667L0.92 0.916667C0.918159 0.916667 0.916667 0.918159 0.916667 0.92L0.916667 12.83ZM-0.916667 12.83L-0.916667 0.92C-0.916667 -0.0943628 -0.0943628 -0.916667 0.92 -0.916667L7.33667 -0.916667L7.33667 14.6667L0.92 14.6667C-0.0943628 14.6667 -0.916667 13.8444 -0.916667 12.83Z"></path><path  id="路径 8" style="fill:#FFFFFF; opacity:1;" d="M4.12492 3.20833L4.12492 5.04167Q4.12492 5.13195 4.1073 5.2205Q4.08969 5.30905 4.05514 5.39246Q4.02059 5.47587 3.97043 5.55094Q3.92027 5.62601 3.85643 5.68985Q3.79259 5.75369 3.71752 5.80385Q3.64246 5.85401 3.55904 5.88856Q3.47563 5.92311 3.38708 5.94072Q3.29854 5.95833 3.20825 5.95833Q3.11797 5.95833 3.02942 5.94072Q2.94087 5.92311 2.85746 5.88856Q2.77405 5.85401 2.69898 5.80385Q2.62391 5.75369 2.56007 5.68985Q2.49623 5.62601 2.44607 5.55094Q2.39591 5.47587 2.36136 5.39246Q2.32681 5.30905 2.3092 5.2205Q2.29158 5.13195 2.29159 5.04167L2.29159 3.20833Q2.29158 3.11805 2.3092 3.0295Q2.32681 2.94095 2.36136 2.85754Q2.39591 2.77413 2.44607 2.69906Q2.49623 2.62399 2.56007 2.56015Q2.62391 2.49631 2.69898 2.44615Q2.77405 2.39599 2.85746 2.36144Q2.94087 2.32689 3.02942 2.30928Q3.11797 2.29167 3.20825 2.29167Q3.29854 2.29167 3.38708 2.30928Q3.47563 2.32689 3.55904 2.36144Q3.64246 2.39599 3.71752 2.44615Q3.79259 2.49631 3.85643 2.56015Q3.92027 2.62399 3.97043 2.69906Q4.02059 2.77413 4.05514 2.85754Q4.08969 2.94095 4.1073 3.0295Q4.12492 3.11805 4.12492 3.20833ZM15.8738 3.27863L10.3738 11.0703Q10.3217 11.1441 10.2563 11.2062Q10.1908 11.2684 10.1145 11.3166Q10.0382 11.3649 9.95391 11.3973Q9.86964 11.4297 9.78067 11.445Q9.69169 11.4603 9.60144 11.458Q9.51119 11.4557 9.42312 11.4358Q9.33505 11.416 9.25255 11.3793Q9.17005 11.3426 9.09629 11.2906Q9.02253 11.2385 8.96035 11.173Q8.89816 11.1076 8.84994 11.0312Q8.80172 10.9549 8.76932 10.8707Q8.73692 10.7864 8.72158 10.6974Q8.70624 10.6084 8.70855 10.5182Q8.71086 10.4279 8.73074 10.3399Q8.75062 10.2518 8.78729 10.1693Q8.82397 10.0868 8.87603 10.013L14.376 2.22137Q14.4281 2.14761 14.4936 2.08543Q14.559 2.02325 14.6353 1.97503Q14.7117 1.92681 14.7959 1.8944Q14.8802 1.862 14.9692 1.84666Q15.0581 1.83132 15.1484 1.83363Q15.2386 1.83595 15.3267 1.85582Q15.4148 1.8757 15.4973 1.91237Q15.5798 1.94905 15.6535 2.00111Q15.7273 2.05318 15.7895 2.11863Q15.8517 2.18409 15.8999 2.26041Q15.9481 2.33674 15.9805 2.42101Q16.0129 2.50528 16.0283 2.59425Q16.0436 2.68322 16.0413 2.77348Q16.039 2.86373 16.0191 2.9518Q15.9992 3.03987 15.9625 3.12237Q15.9259 3.20487 15.8738 3.27863ZM4.12492 3.20833L4.12492 5.04167Q4.12492 5.13195 4.1073 5.2205Q4.08969 5.30905 4.05514 5.39246Q4.02059 5.47587 3.97043 5.55094Q3.92027 5.62601 3.85643 5.68985Q3.79259 5.75369 3.71752 5.80385Q3.64246 5.85401 3.55904 5.88856Q3.47563 5.92311 3.38708 5.94072Q3.29854 5.95833 3.20825 5.95833Q3.11797 5.95833 3.02942 5.94072Q2.94087 5.92311 2.85746 5.88856Q2.77405 5.85401 2.69898 5.80385Q2.62391 5.75369 2.56007 5.68985Q2.49623 5.62601 2.44607 5.55094Q2.39591 5.47587 2.36136 5.39246Q2.32681 5.30905 2.3092 5.2205Q2.29158 5.13195 2.29159 5.04167L2.29159 3.20833Q2.29158 3.11805 2.3092 3.0295Q2.32681 2.94095 2.36136 2.85754Q2.39591 2.77413 2.44607 2.69906Q2.49623 2.62399 2.56007 2.56015Q2.62391 2.49631 2.69898 2.44615Q2.77405 2.39599 2.85746 2.36144Q2.94087 2.32689 3.02942 2.30928Q3.11797 2.29167 3.20825 2.29167Q3.29854 2.29167 3.38708 2.30928Q3.47563 2.32689 3.55904 2.36144Q3.64246 2.39599 3.71752 2.44615Q3.79259 2.49631 3.85643 2.56015Q3.92027 2.62399 3.97043 2.69906Q4.02059 2.77413 4.05514 2.85754Q4.08969 2.94095 4.1073 3.0295Q4.12492 3.11805 4.12492 3.20833ZM15.8738 3.27863L10.3738 11.0703Q10.3217 11.1441 10.2563 11.2062Q10.1908 11.2684 10.1145 11.3166Q10.0382 11.3649 9.95391 11.3973Q9.86964 11.4297 9.78067 11.445Q9.69169 11.4603 9.60144 11.458Q9.51119 11.4557 9.42312 11.4358Q9.33505 11.416 9.25255 11.3793Q9.17005 11.3426 9.09629 11.2906Q9.02253 11.2385 8.96035 11.173Q8.89816 11.1076 8.84994 11.0312Q8.80172 10.9549 8.76932 10.8707Q8.73692 10.7864 8.72158 10.6974Q8.70624 10.6084 8.70855 10.5182Q8.71086 10.4279 8.73074 10.3399Q8.75062 10.2518 8.78729 10.1693Q8.82397 10.0868 8.87603 10.013L14.376 2.22137Q14.4281 2.14761 14.4936 2.08543Q14.559 2.02325 14.6353 1.97503Q14.7117 1.92681 14.7959 1.8944Q14.8802 1.862 14.9692 1.84666Q15.0581 1.83132 15.1484 1.83363Q15.2386 1.83595 15.3267 1.85582Q15.4148 1.8757 15.4973 1.91237Q15.5798 1.94905 15.6535 2.00111Q15.7273 2.05318 15.7895 2.11863Q15.8517 2.18409 15.8999 2.26041Q15.9481 2.33674 15.9805 2.42101Q16.0129 2.50528 16.0283 2.59425Q16.0436 2.68322 16.0413 2.77348Q16.039 2.86373 16.0191 2.9518Q15.9992 3.03987 15.9625 3.12237Q15.9259 3.20487 15.8738 3.27863Z"></path><path id="路径 9" fill-rule="evenodd" style="fill:#FFFFFF" opacity="1" d="M3.21163 8.705L3.21163 8.705C3.71163 8.705 4.12163 8.295 4.12163 7.795L4.12163 7.795C4.12163 7.295 3.71163 6.875 3.21163 6.875L3.21163 6.875C2.70163 6.875 2.29163 7.285 2.29163 7.795L2.29163 7.795C2.29163 8.295 2.71163 8.705 3.21163 8.705Z"></path><path id="路径 10" fill-rule="evenodd" style="fill:#FFFFFF" opacity="1" d="M3.21163 8.705L3.21163 8.705C3.71163 8.705 4.12163 8.295 4.12163 7.795L4.12163 7.795C4.12163 7.295 3.71163 6.875 3.21163 6.875L3.21163 6.875C2.70163 6.875 2.29163 7.285 2.29163 7.795L2.29163 7.795C2.29163 8.295 2.71163 8.705 3.21163 8.705Z"></path><path id="路径 11" fill-rule="evenodd" style="fill:#FFFFFF" opacity="1" d="M3.21163 11.455L3.21163 11.455C3.71163 11.455 4.12163 11.045 4.12163 10.545L4.12163 10.545C4.12163 10.045 3.71163 9.625 3.21163 9.625L3.21163 9.625C2.70163 9.625 2.29163 10.035 2.29163 10.545L2.29163 10.545C2.29163 11.045 2.71163 11.455 3.21163 11.455Z"></path><path id="路径 12" fill-rule="evenodd" style="fill:#FFFFFF" opacity="1" d="M3.21163 11.455L3.21163 11.455C3.71163 11.455 4.12163 11.045 4.12163 10.545L4.12163 10.545C4.12163 10.045 3.71163 9.625 3.21163 9.625L3.21163 9.625C2.70163 9.625 2.29163 10.035 2.29163 10.545L2.29163 10.545C2.29163 11.045 2.71163 11.455 3.21163 11.455Z"></path></g></g><path id="路径 13" fill-rule="evenodd" style="fill:#6E6C6E" opacity="1" d="M-1.83337 17.417L20.1666 17.417L20.1666 -4.58301L-1.83337 -4.58301L-1.83337 17.417Z"></path></g></svg>