<svg xmlns="http://www.w3.org/2000/svg" xmlns:xlink="http://www.w3.org/1999/xlink" width="16" height="16" viewBox="0 0 16 16" fill="none"><g opacity="1"  transform="translate(0 0)  rotate(0)"><mask id="bg-mask-0" fill="white"><use transform="translate(0 0)  rotate(0)" xlink:href="#path_0"></use></mask><g mask="url(#bg-mask-0)" ><g opacity="1"  transform="translate(0 0)  rotate(0)"><mask id="bg-mask-1" fill="white"><use transform="translate(0 0)  rotate(0)" xlink:href="#path_1"></use></mask><g mask="url(#bg-mask-1)" ><g opacity="1"  transform="translate(1.3333740234375 1.3333358764648438)  rotate(0)"><path  id="路径 1" style="fill:#6E6C6E; opacity:1;" d="M6.67 0.5C3.2624 0.5 0.5 3.2624 0.5 6.67C0.5 10.0776 3.2624 12.83 6.67 12.83C10.0721 12.83 12.83 10.0721 12.83 6.67C12.83 3.26793 10.0721 0.5 6.67 0.5ZM6.67 -0.5C10.6244 -0.5 13.83 2.71564 13.83 6.67C13.83 10.6244 10.6244 13.83 6.67 13.83C2.71012 13.83 -0.5 10.6299 -0.5 6.67C-0.5 2.71012 2.71012 -0.5 6.67 -0.5Z"></path><path  id="路径 2" style="fill:#6E6C6E; opacity:1;" d="M8.02018 5.02022L6.02018 7.02022L5.66663 6.66666L6.02018 6.31311L8.02018 8.31311Q8.055 8.34793 8.08236 8.38888Q8.10972 8.42982 8.12856 8.47532Q8.14741 8.52082 8.15702 8.56912Q8.16663 8.61742 8.16663 8.66666Q8.16663 8.71591 8.15702 8.76421Q8.14741 8.81251 8.12856 8.85801Q8.10972 8.9035 8.08236 8.94445Q8.055 8.9854 8.02018 9.02022Q7.98536 9.05504 7.94441 9.0824Q7.90346 9.10976 7.85797 9.1286Q7.81247 9.14745 7.76417 9.15706Q7.71587 9.16666 7.66663 9.16666Q7.61738 9.16666 7.56908 9.15706Q7.52078 9.14745 7.47528 9.1286Q7.42979 9.10976 7.38884 9.0824Q7.34789 9.05504 7.31307 9.02022L5.31307 7.02022C5.11781 6.82496 5.11781 6.50837 5.31307 6.31311L7.31307 4.31311Q7.34789 4.27829 7.38884 4.25093Q7.42979 4.22357 7.47528 4.20472Q7.52078 4.18588 7.56908 4.17627Q7.61738 4.16666 7.66663 4.16666Q7.71587 4.16666 7.76417 4.17627Q7.81247 4.18588 7.85797 4.20472Q7.90346 4.22357 7.94441 4.25093Q7.98536 4.27829 8.02018 4.31311Q8.055 4.34793 8.08236 4.38888Q8.10972 4.42982 8.12856 4.47532Q8.14741 4.52082 8.15702 4.56912Q8.16663 4.61742 8.16663 4.66666Q8.16663 4.71591 8.15702 4.76421Q8.14741 4.81251 8.12856 4.85801Q8.10972 4.9035 8.08236 4.94445Q8.055 4.9854 8.02018 5.02022Z"></path></g></g></g></g></g><defs><rect id="path_0" x="0" y="0" width="16" height="16" rx="0" ry="0"/><rect id="path_1" x="0" y="0" width="16" height="16" rx="0" ry="0"/></defs></svg>