<svg xmlns="http://www.w3.org/2000/svg" xmlns:xlink="http://www.w3.org/1999/xlink" width="21.594680786132812" height="22.002197265625" viewBox="0 0 21.594680786132812 22.002197265625" fill="none"><g opacity="1"  transform="translate(0.782470703125 0.786468505859375)  rotate(0)"><path  id="路径 1" style="fill:#6E6C6E; opacity:1;" d="M12.3625 6.28585C12.7965 6.28585 13.1482 5.93408 13.1482 5.50014C13.1482 5.0662 12.7965 4.71443 12.3625 4.71443C11.9286 4.71443 11.5768 5.0662 11.5768 5.50014C11.5768 5.93408 11.9286 6.28585 12.3625 6.28585ZM12.3625 7.85728C11.0607 7.85728 10.0054 6.80195 10.0054 5.50014C10.0054 4.19833 11.0607 3.143 12.3625 3.143C13.6643 3.143 14.7197 4.19833 14.7197 5.50014C14.7197 6.80195 13.6643 7.85728 12.3625 7.85728ZM6.0768 14.143C6.0768 14.143 6.0768 14.143 6.0768 14.143C6.0768 14.143 6.0768 14.143 6.0768 14.143C6.0768 14.143 6.0768 14.143 6.0768 14.143C6.0768 14.143 6.0768 14.143 6.0768 14.143ZM6.0768 15.7144C5.20892 15.7144 4.50537 15.0109 4.50537 14.143C4.50537 13.2751 5.20892 12.5716 6.0768 12.5716C6.94468 12.5716 7.64823 13.2751 7.64823 14.143C7.64823 15.0109 6.94468 15.7144 6.0768 15.7144ZM6.0768 8.643C6.51074 8.643 6.86251 8.29122 6.86251 7.85728C6.86251 7.42334 6.51074 7.07157 6.0768 7.07157C5.64286 7.07157 5.29109 7.42334 5.29109 7.85728C5.29109 8.29122 5.64286 8.643 6.0768 8.643ZM6.0768 10.2144C4.77499 10.2144 3.71966 9.1591 3.71966 7.85728C3.71966 6.55547 4.77499 5.50014 6.0768 5.50014C7.37861 5.50014 8.43394 6.55547 8.43394 7.85728C8.43394 9.1591 7.37861 10.2144 6.0768 10.2144Z"></path><path  id="路径 2" style="fill:#6E6C6E; opacity:1;" d="M14.7557 18.51L14.7557 18.51Q14.7557 18.5874 14.7406 18.6633Q14.7255 18.7392 14.6959 18.8107Q14.6663 18.8822 14.6233 18.9465Q14.5803 19.0109 14.5256 19.0656Q14.4709 19.1203 14.4065 19.1633Q14.3422 19.2063 14.2707 19.2359Q14.1992 19.2655 14.1233 19.2806Q14.0474 19.2957 13.97 19.2957Q13.8926 19.2957 13.8167 19.2806Q13.7408 19.2655 13.6693 19.2359Q13.5978 19.2063 13.5335 19.1633Q13.4691 19.1203 13.4144 19.0656Q13.3597 19.0109 13.3167 18.9465Q13.2737 18.8822 13.2441 18.8107Q13.2145 18.7392 13.1994 18.6633Q13.1843 18.5874 13.1843 18.51L13.1843 18.51Q13.1843 18.4326 13.1994 18.3567Q13.2145 18.2808 13.2441 18.2093Q13.2737 18.1378 13.3167 18.0735Q13.3597 18.0091 13.4144 17.9544Q13.4691 17.8997 13.5335 17.8567Q13.5978 17.8137 13.6693 17.7841Q13.7408 17.7545 13.8167 17.7394Q13.8926 17.7243 13.97 17.7243Q14.0474 17.7243 14.1233 17.7394Q14.1992 17.7545 14.2707 17.7841Q14.3422 17.8137 14.4065 17.8567Q14.4709 17.8997 14.5256 17.9544Q14.5803 18.0091 14.6233 18.0735Q14.6663 18.1378 14.6959 18.2093Q14.7255 18.2808 14.7406 18.3567Q14.7557 18.4326 14.7557 18.51ZM10.0447 13.5125C10.3576 11.6101 12.002 10.2143 13.93 10.2143L16.87 10.2143C17.6376 10.2143 18.3658 9.84654 18.807 9.2184C19.2508 8.59408 19.3627 7.79459 19.1018 7.07913C17.5025 2.54942 12.77 -0.0457711 8.09557 1.02585C3.42695 2.10535 0.306107 6.51849 0.850628 11.2807C1.38633 16.0466 5.41558 19.6443 10.21 19.6443C11.0574 19.6443 11.9047 19.5366 12.7174 19.2965C13.0339 19.2079 13.2254 18.9142 13.1894 18.5992C13.1879 18.5864 13.1867 18.5735 13.1859 18.5606C13.1656 18.2459 12.9609 17.9764 12.6655 17.8662L12.94 17.13L12.6946 17.8764C10.8575 17.2724 9.7441 15.4287 10.0438 13.5182L10.0447 13.5125ZM11.5962 13.7618C11.4159 14.9115 12.0798 16.0201 13.1854 16.3836C13.1952 16.3868 13.2049 16.3902 13.2145 16.3938C14.0902 16.7203 14.6939 17.5268 14.7541 18.4594L13.97 18.51L14.7506 18.4208C14.8743 19.5028 14.2003 20.5137 13.1626 20.8035C12.2054 21.0863 11.2082 21.2157 10.21 21.2157C4.61563 21.2157 -0.0859079 17.0171 -0.710628 11.4593C-1.34592 5.9031 2.29439 0.754338 7.74443 -0.505847C13.1974 -1.75593 18.7184 1.27313 20.5782 6.54087C21.0161 7.74201 20.8311 9.08319 20.093 10.1216C19.3575 11.1686 18.1495 11.7857 16.87 11.7857L13.93 11.7857C12.7715 11.7857 11.7833 12.6243 11.5953 13.7675L11.5962 13.7618Z"></path></g></svg>