<svg xmlns="http://www.w3.org/2000/svg" xmlns:xlink="http://www.w3.org/1999/xlink" width="19.367202758789062" height="19.3682861328125" viewBox="0 0 19.367202758789062 19.3682861328125" fill="none"><path id="路径 1" fill-rule="evenodd" style="fill:#6E6C6E" opacity="1" d="M13.768 0.704174C14.7076 -0.234725 16.2302 -0.234725 17.1698 0.704174L18.663 2.19742C19.6019 3.13699 19.6019 4.65961 18.663 5.59917L6.82428 17.4379C6.53553 17.7267 6.17803 17.9384 5.78478 18.0498L1.31466 19.3285C0.954339 19.4315 0.566518 19.3309 0.301678 19.0658C0.0368377 18.8007 -0.0633346 18.4128 0.0400308 18.0525L1.31741 13.5838C1.42878 13.1905 1.64053 12.8317 1.92928 12.5415L13.768 0.704174ZM14.01 7.3358L12.0314 5.3558L3.38816 14.0004C3.34681 14.0417 3.31655 14.0928 3.30016 14.1489L2.53291 16.8343L5.21828 16.067C5.27439 16.0507 5.32546 16.0204 5.36678 15.979L14.01 7.3358ZM15.7123 2.16167C15.6478 2.09702 15.5602 2.06068 15.4689 2.06068C15.3776 2.06068 15.29 2.09702 15.2255 2.16167L13.4903 3.8983L15.4689 5.8783L17.2055 4.14167C17.2702 4.07718 17.3065 3.98962 17.3065 3.8983C17.3065 3.80698 17.2702 3.71941 17.2055 3.65492L15.7123 2.16167Z"></path></svg>