<svg t="1704024723424" class="icon" viewBox="0 0 1024 1024" version="1.1" xmlns="http://www.w3.org/2000/svg" p-id="1603" width="64" height="64"><path d="M692 677.6H120c-8.8 0-16.8-4.8-20.8-12s-4-16.8 0-24l285.6-495.2c4-7.2 12-12 20.8-12s16.8 4.8 20.8 12l286.4 495.2c4 7.2 4 16.8 0 24s-12 12-20.8 12z m-530.4-48h488.8L405.6 206.4 161.6 629.6z" fill="#999999" p-id="1604"></path><path d="M662.4 888.8c-146.4 0-265.6-119.2-265.6-265.6-0.8-70.4 27.2-136.8 76.8-187.2 50.4-50.4 117.6-78.4 188.8-78.4 146.4 0 265.6 119.2 265.6 265.6 0 146.4-119.2 265.6-265.6 265.6z m0-483.2c-58.4 0-113.6 23.2-155.2 64-40.8 40.8-63.2 95.2-62.4 152.8 0 120 97.6 217.6 217.6 217.6S880 743.2 880 623.2 782.4 405.6 662.4 405.6z" fill="#999999" p-id="1605"></path></svg>