<svg xmlns="http://www.w3.org/2000/svg" xmlns:xlink="http://www.w3.org/1999/xlink" width="22" height="22" viewBox="0 0 22 22" fill="none"><g opacity="1"  transform="translate(0 0)  rotate(0)"><mask id="bg-mask-0" fill="white"><use transform="translate(0 0)  rotate(0)" xlink:href="#path_0"></use></mask><g mask="url(#bg-mask-0)" ><path id="路径 1" fill-rule="evenodd" style="fill:#6E6C6E" opacity="1" d="M20.2813 2.75C20.2813 2.18084 19.8192 1.71875 19.2501 1.71875C15.4018 1.71875 11.5157 5.89016 9.28993 8.76562C7.64239 8.34023 5.89073 8.70136 4.54578 9.74369C3.20084 10.786 2.41407 12.3922 2.41493 14.0938C2.41493 15.125 2.14852 16.0454 1.62172 16.8231C1.40052 17.1603 1.12561 17.459 0.807895 17.7074C0.427421 17.9544 0.255534 18.4228 0.385942 18.8573C0.519091 19.2967 0.925346 19.5964 1.38454 19.5938L7.91579 19.5938C9.61569 19.5917 11.2191 18.8037 12.2593 17.4592C13.2994 16.1146 13.6594 14.3647 13.2345 12.7188C16.1125 10.4887 20.2813 6.6 20.2813 2.75ZM18.0143 3.98664C17.6706 5.09695 16.8842 6.34906 15.7009 7.67422C15.4431 7.96555 15.1715 8.25 14.8973 8.52414C14.4793 7.99964 14.0036 7.52372 13.4794 7.10531C13.7535 6.83117 14.0371 6.56219 14.3284 6.3018C15.6536 5.11758 16.9048 4.33383 18.0143 3.98664ZM7.91235 17.5312L3.60946 17.5312C4.19489 16.4811 4.49532 15.296 4.48086 14.0938C4.48086 12.1965 6.02116 10.6562 7.91836 10.6562C9.81557 10.6562 11.3559 12.1965 11.3559 14.0938C11.3559 15.991 9.81557 17.5312 7.91836 17.5312L7.91235 17.5312ZM11.1934 9.68344C11.4616 9.3457 11.7563 8.9882 12.0726 8.62211C12.5656 8.99807 13.0058 9.43857 13.3814 9.9318C13.0337 10.2321 12.6799 10.5252 12.3201 10.8109C12.0009 10.3827 11.6214 10.003 11.1934 9.68344Z"></path></g></g><defs><rect id="path_0" x="0" y="0" width="22" height="22" rx="0" ry="0"/></defs></svg>